{"scene":0,"asset":{"generator":"ImageToStl.com","version":"2.0"},"scenes":[{"name":"Scene","nodes":[0]}],"nodes":[{"name":"Node0","children":[1,2,3,4]},{"name":"Node1","mesh":0},{"name":"Node2","mesh":1},{"name":"Node3","mesh":2},{"name":"Node4","mesh":3}],"materials":[{"name":"Leaf 01 Alpha","pbrMetallicRoughness":{"baseColorFactor":[0.8,0.8,0.8,1.0],"metallicFactor":0.5,"roughnessFactor":0.75},"emissiveFactor":[0.0,0.0,0.0],"doubleSided":true},{"name":"SKIN...?","pbrMetallicRoughness":{"baseColorFactor":[0.8,0.617872,0.484523,1.0],"metallicFactor":0.044944,"roughnessFactor":0.75},"emissiveFactor":[0.0,0.0,0.0],"doubleSided":true}],"meshes":[{"name":"Mesh0","primitives":[{"indices":3,"material":0,"attributes":{"POSITION":0,"NORMAL":1,"TEXCOORD_0":2}}]},{"name":"Mesh0","primitives":[{"indices":7,"material":0,"attributes":{"POSITION":4,"NORMAL":5,"TEXCOORD_0":6}}]},{"name":"Mesh0","primitives":[{"indices":11,"material":0,"attributes":{"POSITION":8,"NORMAL":9,"TEXCOORD_0":10}}]},{"name":"Mesh0","primitives":[{"indices":14,"material":1,"attributes":{"POSITION":12,"NORMAL":13}}]}],"accessors":[{"bufferView":0,"componentType":5126,"count":15,"type":"VEC3","min":[0.005403459,-0.043432955,-0.097637475],"max":[0.04031118,-0.020562554,-0.051130317]},{"bufferView":1,"componentType":5126,"count":15,"type":"VEC3"},{"bufferView":2,"componentType":5126,"count":15,"type":"VEC2"},{"bufferView":3,"componentType":5123,"count":144,"type":"SCALAR"},{"bufferView":4,"componentType":5126,"count":15,"type":"VEC3","min":[0.027499208,-0.03408967,-0.09828219],"max":[0.052023605,-0.005648994,-0.049239848]},{"bufferView":5,"componentType":5126,"count":15,"type":"VEC3"},{"bufferView":6,"componentType":5126,"count":15,"type":"VEC2"},{"bufferView":7,"componentType":5123,"count":144,"type":"SCALAR"},{"bufferView":8,"componentType":5126,"count":15,"type":"VEC3","min":[0.005063545,-0.042237088,-0.12238888],"max":[0.051455647,-0.0055683944,-0.04620815]},{"bufferView":9,"componentType":5126,"count":15,"type":"VEC3"},{"bufferView":10,"componentType":5126,"count":15,"type":"VEC2"},{"bufferView":11,"componentType":5123,"count":144,"type":"SCALAR"},{"bufferView":12,"componentType":5126,"count":29420,"type":"VEC3","min":[-0.25064704,-0.28182518,-0.45809376],"max":[0.22192733,0.30002242,0.2922638]},{"bufferView":13,"componentType":5126,"count":29420,"type":"VEC3"},{"bufferView":14,"componentType":5123,"count":175296,"type":"SCALAR"}],"bufferViews":[{"target":34962,"buffer":0,"byteLength":180,"byteOffset":0},{"target":34962,"buffer":0,"byteLength":180,"byteOffset":180},{"target":34962,"buffer":0,"byteLength":120,"byteOffset":360},{"target":34963,"buffer":0,"byteLength":288,"byteOffset":480},{"target":34962,"buffer":0,"byteLength":180,"byteOffset":768},{"target":34962,"buffer":0,"byteLength":180,"byteOffset":948},{"target":34962,"buffer":0,"byteLength":120,"byteOffset":1128},{"target":34963,"buffer":0,"byteLength":288,"byteOffset":1248},{"target":34962,"buffer":0,"byteLength":180,"byteOffset":1536},{"target":34962,"buffer":0,"byteLength":180,"byteOffset":1716},{"target":34962,"buffer":0,"byteLength":120,"byteOffset":1896},{"target":34963,"buffer":0,"byteLength":288,"byteOffset":2016},{"target":34962,"buffer":0,"byteLength":353040,"byteOffset":2304},{"target":34962,"buffer":0,"byteLength":353040,"byteOffset":355344},{"target":34963,"buffer":0,"byteLength":350592,"byteOffset":708384}],"buffers":[{"byteLength":1058976,"uri":"data:application/octet-stream;base64,"}]}